<?xml version="1.0" encoding="UTF-8"?>
<svg id="_圖層_1" data-name="圖層_1" xmlns="http://www.w3.org/2000/svg" version="1.1" viewBox="0 0 34.63 20.86">
  <!-- Generator: Adobe Illustrator 30.1.0, SVG Export Plug-In . SVG Version: 2.1.1 Build 136)  -->
  <defs>
    <style>
      .st0 {
        fill: #0065be;
      }

      .st1 {
        fill: #fff;
      }
    </style>
  </defs>
  <rect class="st0" width="34.63" height="20.86"/>
  <g>
    <polygon class="st1" points="17.32 7.21 5.34 0 0 0 0 3.22 11.98 10.43 17.32 7.21"/>
    <polygon class="st1" points="34.63 17.64 22.65 10.43 17.32 13.64 29.29 20.86 34.63 20.86 34.63 17.64"/>
    <polygon class="st1" points="11.98 10.43 0 17.64 0 20.86 5.34 20.86 17.32 13.64 11.98 10.43"/>
    <polygon class="st1" points="22.65 10.43 34.63 3.22 34.63 0 29.29 0 17.32 7.21 22.65 10.43"/>
    <polygon class="st1" points="11.98 10.43 17.32 13.64 22.65 10.43 17.32 7.21 11.98 10.43"/>
  </g>
</svg>